<?xml version="1.0" encoding="UTF-8"?>
<svg xmlns="http://www.w3.org/2000/svg" xmlns:xlink="http://www.w3.org/1999/xlink" viewBox="0 0 24 24" width="24px" height="24px">
<g id="surface31865283">
<path style=" stroke:none;fill-rule:nonzero;fill:rgb(17.647059%,17.647059%,18.82353%);fill-opacity:1;" d="M 12.558594 22.261719 C 11.503906 22.839844 11.546875 21.984375 11.59375 21.722656 C 11.621094 21.566406 11.742188 20.828125 11.742188 20.828125 C 11.777344 20.5625 11.816406 20.148438 11.710938 19.886719 C 11.59375 19.59375 11.128906 19.445312 10.785156 19.371094 C 5.738281 18.707031 2.003906 15.199219 2.003906 11.011719 C 2.003906 6.339844 6.714844 2.539062 12.503906 2.539062 C 18.289062 2.539062 23 6.339844 23 11.011719 C 23 16.257812 17.4375 19.578125 12.558594 22.261719 Z M 9.183594 12.921875 C 9.183594 12.640625 8.953125 12.414062 8.671875 12.414062 L 7.246094 12.414062 L 7.246094 9.074219 C 7.246094 8.796875 7.015625 8.570312 6.734375 8.570312 C 6.449219 8.570312 6.222656 8.796875 6.222656 9.074219 L 6.222656 12.921875 C 6.222656 13.203125 6.453125 13.429688 6.734375 13.429688 L 8.671875 13.429688 C 8.953125 13.429688 9.183594 13.203125 9.183594 12.921875 Z M 10.679688 9.074219 C 10.679688 8.796875 10.449219 8.570312 10.167969 8.570312 C 9.882812 8.570312 9.65625 8.796875 9.65625 9.074219 L 9.65625 12.921875 C 9.65625 13.203125 9.886719 13.429688 10.167969 13.429688 C 10.449219 13.429688 10.679688 13.203125 10.679688 12.921875 Z M 15.347656 9.074219 C 15.347656 8.796875 15.117188 8.570312 14.835938 8.570312 C 14.554688 8.570312 14.324219 8.796875 14.324219 9.074219 L 14.324219 11.457031 L 12.335938 8.773438 C 12.238281 8.644531 12.085938 8.570312 11.925781 8.570312 C 11.871094 8.570312 11.816406 8.578125 11.765625 8.59375 C 11.554688 8.664062 11.414062 8.859375 11.414062 9.078125 L 11.414062 12.921875 C 11.414062 13.203125 11.644531 13.429688 11.925781 13.429688 C 12.210938 13.429688 12.4375 13.203125 12.4375 12.921875 L 12.4375 10.542969 L 14.425781 13.226562 C 14.523438 13.355469 14.675781 13.429688 14.835938 13.429688 C 14.890625 13.429688 14.945312 13.421875 15 13.40625 C 15.207031 13.335938 15.347656 13.144531 15.347656 12.921875 Z M 18.488281 10.492188 L 17.058594 10.492188 L 17.058594 9.582031 L 18.488281 9.582031 C 18.769531 9.582031 19 9.355469 19 9.074219 C 19 8.796875 18.769531 8.570312 18.488281 8.570312 L 16.546875 8.570312 C 16.265625 8.570312 16.035156 8.796875 16.035156 9.074219 C 16.035156 9.078125 16.035156 9.078125 16.035156 9.078125 L 16.035156 12.921875 C 16.035156 13.203125 16.265625 13.429688 16.546875 13.429688 L 18.488281 13.429688 C 18.769531 13.429688 19 13.203125 19 12.921875 C 19 12.640625 18.769531 12.414062 18.488281 12.414062 L 17.058594 12.414062 L 17.058594 11.507812 L 18.488281 11.507812 C 18.769531 11.507812 19 11.277344 19 11 C 19 10.71875 18.769531 10.492188 18.488281 10.492188 Z M 18.488281 10.492188 "/>
</g>
</svg>
