<svg width="382px" height="140px" viewBox="0 0 382 140" version="1.1" xmlns="http://www.w3.org/2000/svg" xmlns:xlink="http://www.w3.org/1999/xlink">
    <g id="Page-1" stroke="none" stroke-width="1" fill="none" fill-rule="evenodd">
        <g id="index" transform="translate(-1363.000000, -106.000000)">
            <g id="logo" transform="translate(1363.000000, 105.000000)">
                <g id="cht">
                    <polygon id="Fill-1" fill="#656464" points="-3.55271368e-15 30.9703 2.536 35.5803 49.106 35.5803 49.106 30.9703"></polygon>
                    <polygon id="Fill-2" fill="#656464" points="96.9805 94.9066 4.3795 94.9066 1.8445 90.2956 96.9805 90.2956"></polygon>
                    <polygon id="Fill-3" fill="#656464" points="45.1855 55.6376 7.8385 55.6376 5.3025 51.0266 45.1855 51.0266"></polygon>
                    <path d="M0.4609,79.1527 C0.4609,79.1527 5.7639,85.7237 7.3769,86.6457 C7.3769,86.6457 7.6069,87.2217 12.6799,85.0317 C17.7519,82.8417 46.9149,68.7787 46.9149,68.7787 C48.0099,68.1447 48.4129,66.5307 45.8779,67.1647 L1.6139,78.1157 C1.6139,78.1157 0.2309,78.2307 0.4609,79.1527" id="Fill-4" fill="#656464"></path>
                    <polygon id="Fill-6" fill="#656464" points="22.017 74.081 33.429 74.081 33.429 34.543 22.017 34.543"></polygon>
                    <polygon id="Fill-8" fill="#656464" points="59.71 79.6142 52.794 81.5732 52.794 37.6562 59.71 39.9612"></polygon>
                    <polygon id="Fill-9" fill="#656464" points="46.415 138.3632 39.499 140.3232 39.499 106.0492 46.415 108.3552"></polygon>
                    <polygon id="Fill-10" fill="#656464" points="85.9912 138.3632 77.3852 140.3232 77.3852 106.0492 85.9912 108.3552"></polygon>
                    <polygon id="Fill-11" fill="#656464" points="96.8271 79.6142 87.6051 81.5732 87.6051 37.6562 96.8271 39.9612"></polygon>
                    <polygon id="Fill-12" fill="#656464" points="59.595 43.535 88.758 43.535 88.758 39.961 59.595 39.961"></polygon>
                    <polygon id="Fill-13" fill="#656464" points="59.595 78.461 88.758 78.461 88.758 74.888 59.595 74.888"></polygon>
                    <polygon id="Fill-14" fill="#656464" points="59.595 60.595 82.262 60.595 82.262 57.021 59.595 57.021"></polygon>
                    <path d="M64.5518,32.1996 C64.5518,32.1996 63.4758,33.7366 62.7068,34.3506 C61.9388,34.9666 61.0168,36.9636 63.3228,36.5026 C65.6268,36.0416 77.0008,27.5886 80.8428,24.5146 C84.6858,21.4406 88.8138,17.5386 91.6018,14.3706 C94.9828,10.5286 96.2118,3.6126 89.7568,3.3046 C83.4628,3.0056 80.0738,8.9916 78.8448,11.9116 C77.6148,14.8316 64.5518,32.1996 64.5518,32.1996" id="Fill-15" fill="#12A095"></path>
                    <path d="M27.665,93.9076 C27.665,93.9076 24.201,103.1146 19.673,110.7366 C15.061,118.4986 11.992,122.7536 3.535,132.2546 C-2.689,139.2466 3.858,136.1926 5.994,134.5596 C8.606,132.5616 23.208,119.4976 30.124,109.8146 C37.04,100.1326 40.86,98.9396 37.425,94.2146 C34.351,89.9886 27.665,93.9076 27.665,93.9076" id="Fill-16" fill="#656464"></path>
                    <polygon id="Fill-17" fill="#656464" points="46.262 113.503 78.845 113.503 78.845 109.737 46.262 109.737"></polygon>
                    <polygon id="Fill-18" fill="#656464" points="46.262 135.636 78.845 135.636 78.845 131.87 46.262 131.87"></polygon>
                    <polygon id="Fill-19" fill="#656464" points="243.3193 136.4804 235.6893 138.4404 235.6893 37.4254 243.3193 39.7304"></polygon>
                    <polygon id="Fill-20" fill="#656464" points="316.6094 136.4804 304.6214 138.4404 304.6214 37.4254 316.6094 39.7304"></polygon>
                    <polygon id="Fill-21" fill="#656464" points="242.491 46.517 306.644 46.517 306.644 42.42 242.491 42.42"></polygon>
                    <polygon id="Fill-22" fill="#656464" points="242.491 127.36 306.644 127.36 306.644 123.263 242.491 123.263"></polygon>
                    <polygon id="Fill-23" fill="#656464" points="242.49 85.632 296.321 85.632 296.321 81.535 242.49 81.535"></polygon>
                    <path d="M252.2432,31.8978 C252.2432,31.8978 251.0942,33.5408 250.2712,34.1978 C249.4502,34.8558 248.4652,36.9908 250.9292,36.4978 C253.3932,36.0048 265.5512,26.9688 269.6582,23.6838 C273.7652,20.3978 278.1792,16.2268 281.1592,12.8398 C284.7732,8.7328 286.0882,1.3398 279.1872,1.0108 C272.4592,0.6908 268.8372,7.0898 267.5222,10.2108 C266.2082,13.3328 252.2432,31.8978 252.2432,31.8978" id="Fill-24" fill="#12A095"></path>
                    <polygon id="Fill-25" fill="#656464" points="213.9414 46.0687 149.2364 46.0687 146.7014 41.4577 213.9414 41.4577"></polygon>
                    <polygon id="Fill-26" fill="#656464" points="156.652 83.187 200.878 83.187 200.878 79.614 156.652 79.614"></polygon>
                    <path d="M200.5117,75.0248 C200.5117,75.0248 201.7877,74.5148 203.3187,75.0248 C204.8497,75.5358 208.9317,77.8318 208.9317,77.8318 C208.9317,77.8318 211.6687,78.7618 210.7177,80.6388 C188.5817,124.3388 162.9917,133.0998 147.3157,137.4798 C147.3157,137.4798 145.2747,138.3728 144.2537,138.6278 C143.2337,138.8828 142.4907,136.8208 145.4017,135.3108 C162.9917,126.1828 186.0457,116.7308 200.5117,75.0248" id="Fill-27" fill="#656464"></path>
                    <path d="M112.9648,101.0541 C112.9648,101.0541 110.9668,98.3981 110.4578,97.5551 C109.9498,96.7131 109.7768,94.5191 111.7788,95.7491 C113.7828,96.9791 123.3338,107.5991 125.8748,111.8131 C128.4168,116.0261 130.5028,120.7861 132.0228,124.7231 C133.8658,129.4981 131.2598,137.9871 125.0968,136.0421 C119.0878,134.1461 119.4298,126.9661 119.5728,123.8011 C120.0348,113.6571 112.9648,101.0541 112.9648,101.0541" id="Fill-28" fill="#656464"></path>
                    <path d="M119.3428,35.7045 C119.3428,35.7045 118.2678,34.3165 117.4988,33.7625 C116.7308,33.2065 115.8088,31.4035 118.1138,31.8195 C120.4188,32.2355 125.6448,33.4145 129.5638,35.4965 C133.6518,37.6675 134.8658,38.3415 136.7108,40.2835 C140.0418,43.7915 139.1698,49.5115 133.7898,49.7015 C128.4868,49.8905 126.5738,44.8045 124.8758,42.1575 C123.1858,39.5205 119.3428,35.7045 119.3428,35.7045" id="Fill-29" fill="#656464"></path>
                    <path d="M112.8076,61.8334 C112.8076,61.8334 111.6746,60.3374 110.8846,59.7514 C110.0936,59.1654 109.0976,57.2034 111.4186,57.5784 C113.7406,57.9534 119.0106,59.0654 123.0126,61.2244 C127.1866,63.4754 128.4276,64.1764 130.3506,66.2584 C133.8236,70.0184 133.1866,76.3804 127.8196,76.7914 C122.5266,77.1954 120.4066,71.6374 118.6016,68.7704 C116.8036,65.9144 112.8076,61.8334 112.8076,61.8334" id="Fill-30" fill="#656464"></path>
                    <path d="M208.5625,39.4657 C208.5625,39.4657 209.0235,38.4547 211.0985,38.9987 C212.4675,39.3577 215.7865,40.6897 215.7865,40.6897 C215.7865,40.6897 218.2455,41.5787 217.7845,42.7857 C217.3235,43.9927 213.4035,56.9697 196.5745,64.6657 C196.5745,64.6657 194.7305,65.1937 193.8075,65.3437 C192.8855,65.4947 193.1165,64.2877 194.8455,63.3827 C196.5745,62.4777 207.0635,49.7267 208.5625,39.4657" id="Fill-31" fill="#656464"></path>
                    <polygon id="Fill-32" fill="#656464" points="184.2236 80.8817 175.8806 82.8417 175.8806 26.0717 184.2236 28.3777"></polygon>
                    <path d="M166.2197,83.0722 C166.2197,83.0722 176.1327,104.9732 185.3547,111.3132 C194.5757,117.6532 203.1067,124.2232 220.6267,125.6072 L211.6367,135.7502 C211.6367,135.7502 194.1157,130.5632 182.2417,116.6152 C170.3687,102.6682 165.7587,89.8732 163.6837,82.7262 L166.2197,83.0722 Z" id="Fill-33" fill="#656464"></path>
                    <path d="M149.2363,45.3983 L149.2363,84.4553 C149.2363,84.4553 150.4653,111.6593 135.2513,135.0203 C135.2513,135.0203 134.6353,136.0963 134.0973,136.7883 C133.5593,137.4793 134.2513,139.0163 135.4813,137.9403 C136.7113,136.8653 143.3963,129.9483 148.0073,121.0343 C152.6183,112.1203 157.4813,98.4413 157.4813,86.1463 L157.4813,45.2443 L149.2363,45.3983 Z" id="Fill-34" fill="#656464"></path>
                    <path d="M144.0107,54.0238 C144.0107,54.0238 127.5657,97.5198 123.8767,102.1298 C120.1887,106.7408 115.5777,100.1318 115.5777,100.1318 L128.7947,121.8028 C128.7947,121.8028 127.4117,116.1158 129.7177,107.5088 C132.0227,98.9028 145.3947,55.8678 145.3947,55.8678 C145.3947,55.8678 146.4697,51.1038 144.0107,54.0238" id="Fill-35" fill="#656464"></path>
                </g>
                <g id="eng" transform="translate(326.000000, 77.000000)">
                    <path d="M3.4268,22.0038 C3.4268,22.8378 3.4268,24.1818 3.4388,24.3438 C3.4728,24.8748 3.4728,25.0268 3.8258,25.1888 C4.1348,25.3298 4.6258,25.3518 4.8308,25.3518 C5.4478,25.3518 6.4408,25.0378 6.4408,23.8128 C6.4408,23.1628 6.2118,22.2208 5.3328,21.6468 C4.9458,21.3978 4.6598,21.3648 4.3858,21.3328 C4.2378,21.3108 3.6668,21.3108 3.4958,21.3108 C3.4498,21.3108 3.4268,21.3328 3.4268,21.3858 L3.4268,22.0038 Z M3.4268,20.8558 C3.4268,20.9318 3.4498,20.9528 3.5068,20.9748 C3.5748,20.9858 3.7808,21.0178 4.2028,21.0178 C4.8428,21.0178 5.0018,20.9968 5.2418,20.7358 C5.4818,20.4768 5.6528,20.0868 5.6528,19.6418 C5.6528,18.7428 5.2308,17.7788 4.1128,17.7788 C3.9868,17.7788 3.7468,17.7898 3.5648,17.8328 C3.4608,17.8548 3.4268,17.8868 3.4268,17.9518 L3.4268,20.8558 Z M2.5138,20.6168 C2.5138,18.9268 2.5138,18.6238 2.4908,18.2768 C2.4688,17.9088 2.3768,17.7348 1.9998,17.6598 C1.9088,17.6378 1.7148,17.6268 1.6128,17.6268 C1.5668,17.6268 1.5218,17.6058 1.5218,17.5618 C1.5218,17.4968 1.5778,17.4758 1.7038,17.4758 C2.2168,17.4758 2.9368,17.5078 2.9928,17.5078 C3.2678,17.5078 3.7128,17.4758 4.2378,17.4758 C6.1098,17.4758 6.5208,18.5588 6.5208,19.1008 C6.5208,19.9888 5.9838,20.5198 5.4478,21.0508 C6.2918,21.2998 7.4218,22.0688 7.4218,23.3368 C7.4218,24.4958 6.4628,25.6978 4.5118,25.6978 C4.3858,25.6978 4.0208,25.6768 3.6898,25.6658 C3.3588,25.6438 3.0388,25.6328 2.9928,25.6328 C2.9708,25.6328 2.7768,25.6328 2.5368,25.6438 C2.3088,25.6438 2.0458,25.6658 1.8748,25.6658 C1.7488,25.6658 1.6928,25.6438 1.6928,25.5788 C1.6928,25.5458 1.7148,25.5138 1.7828,25.5138 C1.8868,25.5138 2.0238,25.4928 2.1258,25.4708 C2.3548,25.4268 2.4108,25.1888 2.4568,24.8748 C2.5138,24.4198 2.5138,23.5638 2.5138,22.5238 L2.5138,20.6168 Z" id="Fill-36" fill="#656464"></path>
                    <path d="M9.6221,21.3646 C9.6221,19.9346 9.6221,19.6746 9.5991,19.3826 C9.5761,19.0676 9.5181,18.9166 9.1871,18.8726 C9.1081,18.8626 8.9361,18.8516 8.8461,18.8516 C8.8111,18.8516 8.7661,18.8076 8.7661,18.7756 C8.7661,18.7206 8.8111,18.6996 8.9261,18.6996 C9.3821,18.6996 10.0321,18.7206 10.0901,18.7206 C10.1581,18.7206 12.2581,18.7326 12.4861,18.7206 C12.6811,18.7106 12.8631,18.6776 12.9431,18.6666 C12.9881,18.6566 13.0341,18.6236 13.0801,18.6236 C13.1141,18.6236 13.1261,18.6666 13.1261,18.7106 C13.1261,18.7756 13.0681,18.8836 13.0461,19.1436 C13.0341,19.2306 13.0121,19.6416 12.9881,19.7506 C12.9771,19.7936 12.9431,19.8476 12.8971,19.8476 C12.8401,19.8476 12.8171,19.8046 12.8171,19.7286 C12.8171,19.6636 12.8061,19.5116 12.7611,19.4036 C12.6911,19.2526 12.5891,19.1866 12.0411,19.1216 C11.8701,19.1006 10.7061,19.0896 10.5921,19.0896 C10.5461,19.0896 10.5351,19.1216 10.5351,19.1866 L10.5351,21.6896 C10.5351,21.7546 10.5351,21.7866 10.5921,21.7866 C10.7181,21.7866 12.0411,21.7866 12.2691,21.7656 C12.5101,21.7436 12.6571,21.7326 12.7611,21.6356 C12.8291,21.5706 12.8751,21.5166 12.9091,21.5166 C12.9431,21.5166 12.9661,21.5376 12.9661,21.5926 C12.9661,21.6466 12.9091,21.7986 12.8861,22.1016 C12.8631,22.2856 12.8401,22.6326 12.8401,22.6976 C12.8401,22.7726 12.8171,22.8706 12.7491,22.8706 C12.7031,22.8706 12.6811,22.8386 12.6811,22.7836 C12.6811,22.6976 12.6811,22.5996 12.6351,22.4806 C12.6011,22.3506 12.5101,22.2416 12.1211,22.1986 C11.8481,22.1666 10.7741,22.1556 10.6031,22.1556 C10.5461,22.1556 10.5351,22.1876 10.5351,22.2206 L10.5351,22.9896 C10.5351,23.3036 10.5231,24.3766 10.5351,24.5606 C10.5581,25.1776 10.7401,25.2976 11.7331,25.2976 C11.9961,25.2976 12.4751,25.2976 12.7371,25.1996 C13.0001,25.0916 13.1371,24.9286 13.1941,24.5606 C13.2171,24.4526 13.2401,24.4196 13.2971,24.4196 C13.3531,24.4196 13.3651,24.4956 13.3651,24.5606 C13.3651,24.6256 13.2851,25.2536 13.2281,25.4486 C13.1601,25.6876 13.0571,25.6876 12.6691,25.6876 C11.9161,25.6876 11.3341,25.6656 10.9231,25.6546 C10.5001,25.6336 10.2381,25.6336 10.0901,25.6336 C10.0661,25.6336 9.8731,25.6336 9.6561,25.6436 C9.4621,25.6546 9.2331,25.6656 9.0741,25.6656 C8.9711,25.6656 8.9141,25.6436 8.9141,25.5896 C8.9141,25.5576 8.9361,25.5136 8.9941,25.5136 C9.0851,25.5136 9.2111,25.4816 9.3021,25.4706 C9.4961,25.4386 9.5181,25.2536 9.5641,24.9836 C9.6221,24.6036 9.6221,23.8786 9.6221,22.9896 L9.6221,21.3646 Z" id="Fill-37" fill="#656464"></path>
                    <path d="M18.2695,22.7191 C18.3155,22.7191 18.3155,22.6971 18.3035,22.6541 L17.3105,20.1301 C17.2535,19.9891 17.1965,19.9891 17.1395,20.1301 L16.2045,22.6541 C16.1925,22.6971 16.2045,22.7191 16.2385,22.7191 L18.2695,22.7191 Z M17.1515,18.8841 C17.2765,18.5801 17.3225,18.5261 17.3905,18.5261 C17.4935,18.5261 17.5275,18.6561 17.6305,18.8621 C17.8135,19.2521 19.4215,23.0541 20.0395,24.4521 C20.4045,25.2761 20.6775,25.3951 20.8945,25.4601 C21.0425,25.5031 21.1915,25.5141 21.2935,25.5141 C21.3515,25.5141 21.4195,25.5351 21.4195,25.5901 C21.4195,25.6441 21.3055,25.6661 21.1915,25.6661 C21.0425,25.6661 20.3005,25.6661 19.6055,25.6441 C19.4115,25.6331 19.2505,25.6331 19.2505,25.5791 C19.2505,25.5351 19.2745,25.5351 19.3195,25.5141 C19.3765,25.4921 19.4795,25.4161 19.4115,25.2651 L18.5095,23.1521 C18.4865,23.1091 18.4745,23.0981 18.4175,23.0981 L16.1005,23.0981 C16.0555,23.0981 16.0215,23.1191 15.9985,23.1741 L15.4275,24.6471 C15.3355,24.8751 15.2795,25.1021 15.2795,25.2651 C15.2795,25.4491 15.4505,25.5141 15.6225,25.5141 L15.7125,25.5141 C15.7925,25.5141 15.8155,25.5461 15.8155,25.5901 C15.8155,25.6441 15.7585,25.6661 15.6665,25.6661 C15.4275,25.6661 14.8795,25.6331 14.7655,25.6331 C14.6635,25.6331 14.1615,25.6661 13.7495,25.6661 C13.6235,25.6661 13.5555,25.6441 13.5555,25.5901 C13.5555,25.5461 13.6015,25.5141 13.6475,25.5141 C13.7155,25.5141 13.8645,25.5031 13.9435,25.4921 C14.4005,25.4381 14.5945,25.1131 14.7885,24.6471 L17.1515,18.8841 Z" id="Fill-38" fill="#656464"></path>
                    <path d="M21.9424,21.3646 C21.9424,19.9346 21.9424,19.6746 21.9194,19.3826 C21.8964,19.0896 21.8384,18.9166 21.5074,18.8726 C21.4284,18.8626 21.2564,18.8516 21.1664,18.8516 C21.1314,18.8516 21.0864,18.8076 21.0864,18.7756 C21.0864,18.7206 21.1314,18.6996 21.2464,18.6996 C21.7024,18.6996 22.3074,18.7206 22.3984,18.7206 C22.4904,18.7206 23.1174,18.6996 23.4144,18.6996 C23.5284,18.6996 23.5864,18.7206 23.5864,18.7756 C23.5864,18.8076 23.5404,18.8516 23.4944,18.8516 C23.4254,18.8516 23.3694,18.8516 23.2434,18.8726 C22.9804,18.9166 22.9234,19.0786 22.9004,19.3826 C22.8784,19.6746 22.8784,19.9346 22.8784,21.3646 L22.8784,22.6536 C22.8784,23.9866 23.1864,24.5386 23.6204,24.9066 C24.1104,25.3296 24.5444,25.4056 25.1154,25.4056 C25.7314,25.4056 26.3254,25.1456 26.6674,24.7556 C27.1344,24.2246 27.2384,23.4666 27.2384,22.5236 L27.2384,21.3646 C27.2384,19.9346 27.2264,19.6746 27.2144,19.3826 C27.2044,19.0896 27.1464,18.9166 26.8154,18.8726 C26.7354,18.8626 26.5644,18.8516 26.4734,18.8516 C26.4274,18.8516 26.3934,18.8076 26.3934,18.7756 C26.3934,18.7206 26.4394,18.6996 26.5524,18.6996 C26.9984,18.6996 27.5804,18.7206 27.6374,18.7206 C27.7064,18.7206 28.1854,18.6996 28.4824,18.6996 C28.5954,18.6996 28.6414,18.7206 28.6414,18.7756 C28.6414,18.8076 28.6074,18.8516 28.5614,18.8516 C28.4934,18.8516 28.4364,18.8516 28.3104,18.8726 C28.0374,18.9266 27.9794,19.0786 27.9574,19.3826 C27.9344,19.6746 27.9454,19.9346 27.9454,21.3646 L27.9454,22.3506 C27.9454,23.3466 27.8084,24.4636 27.0094,25.1136 C26.2794,25.7086 25.5034,25.7846 24.9094,25.7846 C24.5784,25.7846 23.5284,25.7626 22.8214,25.1346 C22.3304,24.7016 21.9424,24.0626 21.9424,22.7186 L21.9424,21.3646 Z" id="Fill-39" fill="#656464"></path>
                    <path d="M32.7129,22.9896 C32.7129,23.8786 32.7129,24.6036 32.7579,24.9836 C32.7919,25.2536 32.8379,25.4276 33.1469,25.4706 C33.2829,25.4926 33.5119,25.5136 33.6029,25.5136 C33.6709,25.5136 33.6829,25.5576 33.6829,25.5896 C33.6829,25.6336 33.6369,25.6656 33.5229,25.6656 C32.9749,25.6656 32.3359,25.6336 32.2779,25.6336 C32.2339,25.6336 31.5369,25.6656 31.2399,25.6656 C31.1259,25.6656 31.0799,25.6436 31.0799,25.5896 C31.0799,25.5576 31.1039,25.5246 31.1599,25.5246 C31.2519,25.5246 31.3649,25.5036 31.4569,25.4816 C31.6619,25.4386 31.7199,25.2536 31.7539,24.9836 C31.7999,24.6036 31.7999,23.8786 31.7999,22.9896 L31.7999,19.1216 L30.3499,19.1436 C29.7219,19.1546 29.4829,19.2196 29.3339,19.4366 C29.2199,19.5986 29.2089,19.6636 29.1739,19.7286 C29.1509,19.8046 29.1169,19.8156 29.0709,19.8156 C29.0489,19.8156 29.0029,19.7936 29.0029,19.7396 C29.0029,19.6416 29.1969,18.8186 29.2199,18.7426 C29.2319,18.6886 29.2879,18.5696 29.3219,18.5696 C29.3909,18.5696 29.4939,18.6456 29.7679,18.6776 C30.0529,18.7106 30.4419,18.7206 30.5559,18.7206 L34.3449,18.7206 C34.6759,18.7206 34.9039,18.6996 35.0639,18.6776 C35.2119,18.6566 35.3039,18.6346 35.3489,18.6346 C35.3949,18.6346 35.3949,18.6886 35.3949,18.7426 C35.3949,19.0246 35.3599,19.6856 35.3599,19.7936 C35.3599,19.8696 35.3149,19.9126 35.2699,19.9126 C35.2239,19.9126 35.1999,19.8806 35.1899,19.7506 L35.1779,19.6526 C35.1439,19.3716 34.9269,19.1656 33.9679,19.1436 L32.7129,19.1216 L32.7129,22.9896 Z" id="Fill-40" fill="#656464"></path>
                    <path d="M38.5635,23.2714 C38.5635,22.7724 38.4955,22.5884 38.3465,22.3294 C38.2665,22.1884 36.9095,20.1404 36.5665,19.6524 C36.3275,19.3064 36.0865,19.1004 35.9045,18.9814 C35.7555,18.8944 35.5625,18.8514 35.4825,18.8514 C35.4245,18.8514 35.3785,18.8084 35.3785,18.7644 C35.3785,18.7214 35.4145,18.6994 35.5045,18.6994 C35.6995,18.6994 36.4525,18.7214 36.4985,18.7214 C36.5665,18.7214 36.9775,18.6994 37.3655,18.6994 C37.4795,18.6994 37.5015,18.7214 37.5015,18.7644 C37.5015,18.7974 37.4335,18.8294 37.3425,18.8624 C37.2625,18.8944 37.2165,18.9384 37.2165,19.0134 C37.2165,19.1444 37.2855,19.2524 37.3535,19.3714 L39.1795,22.2424 C39.3855,21.8524 40.6405,19.8804 40.8235,19.5774 C40.9495,19.3714 40.9955,19.2194 40.9955,19.1004 C40.9955,18.9704 40.9495,18.8944 40.8345,18.8624 C40.7445,18.8404 40.6865,18.7974 40.6865,18.7534 C40.6865,18.7214 40.7445,18.6994 40.8465,18.6994 C41.1095,18.6994 41.4625,18.7214 41.5425,18.7214 C41.6115,18.7214 42.3305,18.6994 42.5245,18.6994 C42.5925,18.6994 42.6495,18.7214 42.6495,18.7534 C42.6495,18.7974 42.6045,18.8514 42.5245,18.8514 C42.4105,18.8514 42.2155,18.8834 42.0565,18.9704 C41.8625,19.0794 41.7715,19.1764 41.5535,19.4254 C41.2225,19.7934 39.8075,21.9604 39.6025,22.3504 C39.4315,22.6754 39.4765,22.9684 39.4765,23.2714 L39.4765,24.0624 C39.4765,24.2134 39.4765,24.6044 39.5105,24.9834 C39.5345,25.2534 39.6025,25.4274 39.8995,25.4704 C40.0365,25.4924 40.2645,25.5144 40.3555,25.5144 C40.4135,25.5144 40.4355,25.5574 40.4355,25.5894 C40.4355,25.6334 40.3785,25.6664 40.2755,25.6664 C39.7165,25.6664 39.0665,25.6334 39.0085,25.6334 C38.9625,25.6334 38.3245,25.6664 38.0275,25.6664 C37.9135,25.6664 37.8675,25.6444 37.8675,25.5894 C37.8675,25.5574 37.8905,25.5144 37.9475,25.5144 C38.0395,25.5144 38.1535,25.4924 38.2445,25.4704 C38.4495,25.4274 38.5185,25.2534 38.5415,24.9834 C38.5635,24.6044 38.5635,24.2134 38.5635,24.0624 L38.5635,23.2714 Z" id="Fill-41" fill="#656464"></path>
                    <path d="M11.0059,37.0648 C11.0519,37.4548 11.1309,38.0618 11.6219,38.2128 C11.9529,38.3108 12.2499,38.3108 12.3639,38.3108 C12.4209,38.3108 12.4549,38.3208 12.4549,38.3648 C12.4549,38.4298 12.3529,38.4618 12.2159,38.4618 C11.9649,38.4618 10.7319,38.4518 10.3099,38.4188 C10.0469,38.3978 9.9899,38.3648 9.9899,38.3108 C9.9899,38.2668 10.0129,38.2458 10.0699,38.2348 C10.1269,38.2238 10.1389,38.0398 10.1149,37.8448 L9.5679,32.2218 L9.5329,32.2218 L6.7369,37.8558 C6.4969,38.3328 6.4629,38.4298 6.3599,38.4298 C6.2799,38.4298 6.2239,38.3208 6.0069,37.9318 C5.7099,37.3998 4.7289,35.5258 4.6709,35.4178 C4.5689,35.2228 3.2899,32.6228 3.1649,32.3308 L3.1189,32.3308 L2.6619,37.3568 C2.6519,37.5308 2.6519,37.7258 2.6519,37.9098 C2.6519,38.0718 2.7769,38.2128 2.9469,38.2458 C3.1419,38.2888 3.3129,38.2998 3.3819,38.2998 C3.4269,38.2998 3.4729,38.3208 3.4729,38.3538 C3.4729,38.4298 3.4039,38.4518 3.2679,38.4518 C2.8449,38.4518 2.2969,38.4188 2.2059,38.4188 C2.1039,38.4188 1.5559,38.4518 1.2469,38.4518 C1.1329,38.4518 1.0529,38.4298 1.0529,38.3538 C1.0529,38.3208 1.1099,38.2998 1.1669,38.2998 C1.2589,38.2998 1.3389,38.2998 1.5099,38.2668 C1.8869,38.2018 1.9209,37.7798 1.9659,37.3678 L2.7879,30.3048 C2.7999,30.1848 2.8449,30.1088 2.9129,30.1088 C2.9829,30.1088 3.0269,30.1528 3.0849,30.2718 L6.5769,37.0858 L9.9329,30.2828 C9.9789,30.1848 10.0249,30.1088 10.1049,30.1088 C10.1839,30.1088 10.2179,30.1958 10.2409,30.4018 L11.0059,37.0648 Z" id="Fill-42" fill="#656464"></path>
                    <path d="M16.8437,35.5048 C16.8897,35.5048 16.8897,35.4828 16.8777,35.4398 L15.8847,32.9158 C15.8277,32.7748 15.7707,32.7748 15.7137,32.9158 L14.7787,35.4398 C14.7667,35.4828 14.7787,35.5048 14.8127,35.5048 L16.8437,35.5048 Z M15.7257,31.6698 C15.8507,31.3658 15.8967,31.3118 15.9647,31.3118 C16.0677,31.3118 16.1017,31.4418 16.2047,31.6478 C16.3877,32.0378 17.9957,35.8398 18.6137,37.2378 C18.9787,38.0618 19.2517,38.1808 19.4687,38.2458 C19.6167,38.2888 19.7657,38.2998 19.8677,38.2998 C19.9257,38.2998 19.9937,38.3208 19.9937,38.3758 C19.9937,38.4298 19.8797,38.4518 19.7657,38.4518 C19.6167,38.4518 18.8747,38.4518 18.1797,38.4298 C17.9857,38.4188 17.8247,38.4188 17.8247,38.3648 C17.8247,38.3208 17.8487,38.3208 17.8937,38.2998 C17.9507,38.2778 18.0537,38.2018 17.9857,38.0508 L17.0837,35.9378 C17.0607,35.8948 17.0487,35.8838 16.9917,35.8838 L14.6747,35.8838 C14.6297,35.8838 14.5957,35.9058 14.5727,35.9598 L14.0017,37.4328 C13.9097,37.6608 13.8537,37.8878 13.8537,38.0508 C13.8537,38.2348 14.0247,38.2998 14.1967,38.2998 L14.2867,38.2998 C14.3667,38.2998 14.3897,38.3328 14.3897,38.3758 C14.3897,38.4298 14.3327,38.4518 14.2407,38.4518 C14.0017,38.4518 13.4537,38.4188 13.3397,38.4188 C13.2377,38.4188 12.7357,38.4518 12.3237,38.4518 C12.1977,38.4518 12.1297,38.4298 12.1297,38.3758 C12.1297,38.3328 12.1757,38.2998 12.2217,38.2998 C12.2897,38.2998 12.4387,38.2888 12.5177,38.2778 C12.9747,38.2238 13.1687,37.8988 13.3627,37.4328 L15.7257,31.6698 Z" id="Fill-43" fill="#656464"></path>
                    <path d="M21.4512,37.1947 C21.4732,37.9527 21.5652,38.1807 21.8392,38.2457 C22.0212,38.2887 22.2502,38.2997 22.3422,38.2997 C22.3872,38.2997 22.4212,38.3327 22.4212,38.3757 C22.4212,38.4297 22.3522,38.4517 22.2382,38.4517 C21.6682,38.4517 21.2682,38.4187 21.1782,38.4187 C21.0862,38.4187 20.6642,38.4517 20.2072,38.4517 C20.1042,38.4517 20.0472,38.4407 20.0472,38.3757 C20.0472,38.3327 20.0822,38.2997 20.1272,38.2997 C20.2072,38.2997 20.3892,38.2887 20.5382,38.2457 C20.7892,38.1807 20.8232,37.9317 20.8232,37.0967 L20.8232,31.8207 C20.8232,31.4527 20.8812,31.3557 20.9602,31.3557 C21.0742,31.3557 21.2462,31.5397 21.3482,31.6367 C21.5082,31.7887 22.9692,33.2617 24.5212,34.7787 C25.5142,35.7537 26.5872,36.8477 26.8952,37.1517 L26.7932,32.5357 C26.7812,31.9407 26.7242,31.7347 26.4162,31.6797 C26.2332,31.6477 26.0052,31.6367 25.9262,31.6367 C25.8562,31.6367 25.8462,31.5827 25.8462,31.5497 C25.8462,31.4957 25.9262,31.4857 26.0392,31.4857 C26.4962,31.4857 26.9752,31.5067 27.0902,31.5067 C27.2032,31.5067 27.5342,31.4857 27.9452,31.4857 C28.0482,31.4857 28.1282,31.4957 28.1282,31.5497 C28.1282,31.5827 28.0822,31.6367 28.0132,31.6367 C27.9692,31.6367 27.8882,31.6367 27.7742,31.6587 C27.4432,31.7237 27.4212,31.9077 27.4212,32.4607 L27.3972,37.8557 C27.3972,38.4627 27.3872,38.5167 27.3172,38.5167 C27.2152,38.5167 27.1122,38.4407 26.5532,37.9527 C26.4502,37.8657 25.0012,36.5117 23.9392,35.4617 C22.7752,34.3017 21.6452,33.1747 21.3372,32.8507 L21.4512,37.1947 Z" id="Fill-44" fill="#656464"></path>
                    <path d="M29.4023,38.3212 C29.2643,38.2562 29.2543,38.2242 29.2543,37.9742 C29.2543,37.5192 29.2983,37.1512 29.3103,36.9992 C29.3103,36.9022 29.3343,36.8482 29.3903,36.8482 C29.4473,36.8482 29.4823,36.8802 29.4823,36.9562 C29.4823,37.0322 29.4823,37.1622 29.5163,37.2922 C29.6753,37.9642 30.4293,38.2022 31.1023,38.2022 C32.0953,38.2022 32.6093,37.6712 32.6093,36.9782 C32.6093,36.3172 32.2323,36.0032 31.3423,35.3742 L30.8853,35.0502 C29.8013,34.2802 29.4473,33.7172 29.4473,33.0782 C29.4473,31.9942 30.3493,31.3442 31.6733,31.3442 C32.0733,31.3442 32.4723,31.3992 32.7123,31.4522 C32.9063,31.4962 32.9863,31.4962 33.0653,31.4962 C33.1453,31.4962 33.1693,31.5072 33.1693,31.5612 C33.1693,31.6042 33.1233,31.9072 33.1233,32.5362 C33.1233,32.6772 33.1113,32.7422 33.0433,32.7422 C32.9743,32.7422 32.9633,32.6982 32.9513,32.6232 C32.9403,32.5142 32.8603,32.2652 32.8033,32.1682 C32.7343,32.0592 32.4043,31.7132 31.5023,31.7132 C30.7713,31.7132 30.1673,32.0592 30.1673,32.7092 C30.1673,33.2942 30.4743,33.6302 31.4673,34.2692 L31.7533,34.4532 C32.9743,35.2442 33.3963,35.8832 33.3963,36.6752 C33.3963,37.2162 33.1793,37.8012 32.4613,38.2452 C32.0393,38.5052 31.4113,38.5712 30.8633,38.5712 C30.3943,38.5712 29.8123,38.5052 29.4023,38.3212" id="Fill-45" fill="#656464"></path>
                    <path d="M36.625,35.7753 C36.625,36.6643 36.625,37.3893 36.67,37.7693 C36.704,38.0393 36.738,38.2133 37.035,38.2563 C37.184,38.2783 37.4,38.2993 37.492,38.2993 C37.549,38.2993 37.572,38.3433 37.572,38.3753 C37.572,38.4193 37.526,38.4513 37.412,38.4513 C36.853,38.4513 36.202,38.4193 36.156,38.4193 C36.1,38.4193 35.472,38.4513 35.164,38.4513 C35.061,38.4513 35.004,38.4293 35.004,38.3753 C35.004,38.3433 35.026,38.2993 35.084,38.2993 C35.175,38.2993 35.301,38.2783 35.392,38.2563 C35.586,38.2133 35.62,38.0393 35.654,37.7693 C35.7,37.3893 35.712,36.6643 35.712,35.7753 L35.712,34.1503 C35.712,32.7203 35.712,32.4603 35.688,32.1683 C35.666,31.8533 35.586,31.7133 35.369,31.6693 C35.255,31.6483 35.129,31.6373 35.061,31.6373 C35.016,31.6373 34.981,31.5933 34.981,31.5613 C34.981,31.5063 35.026,31.4853 35.141,31.4853 C35.472,31.4853 36.1,31.5063 36.156,31.5063 C36.202,31.5063 36.853,31.4853 37.161,31.4853 C37.275,31.4853 37.32,31.5063 37.32,31.5613 C37.32,31.5933 37.275,31.6373 37.241,31.6373 C37.173,31.6373 37.104,31.6373 36.99,31.6583 C36.716,31.7133 36.659,31.8423 36.636,32.1683 C36.625,32.4603 36.625,32.7203 36.625,34.1503 L36.625,35.7753 Z" id="Fill-46" fill="#656464"></path>
                    <path d="M42.7734,38.1913 C43.6754,38.1913 45.4904,37.7363 45.4904,35.0713 C45.4904,32.8613 44.0754,31.7023 42.4884,31.7023 C40.8104,31.7023 39.6004,32.6983 39.6004,34.7033 C39.6004,36.8483 40.9594,38.1913 42.7734,38.1913 M42.5454,31.3553 C44.8054,31.3553 46.5174,32.6663 46.5174,34.8113 C46.5174,36.8693 44.9084,38.5703 42.4884,38.5703 C39.7384,38.5703 38.5624,36.6093 38.5624,34.9523 C38.5624,33.4673 39.7724,31.3553 42.5454,31.3553" id="Fill-47" fill="#656464"></path>
                    <path d="M48.751,37.1947 C48.773,37.9527 48.865,38.1807 49.139,38.2457 C49.321,38.2887 49.55,38.2997 49.642,38.2997 C49.687,38.2997 49.721,38.3327 49.721,38.3757 C49.721,38.4297 49.652,38.4517 49.538,38.4517 C48.968,38.4517 48.568,38.4187 48.477,38.4187 C48.386,38.4187 47.964,38.4517 47.507,38.4517 C47.404,38.4517 47.347,38.4407 47.347,38.3757 C47.347,38.3327 47.381,38.2997 47.427,38.2997 C47.507,38.2997 47.689,38.2887 47.838,38.2457 C48.089,38.1807 48.123,37.9317 48.123,37.0967 L48.123,31.8207 C48.123,31.4527 48.181,31.3557 48.26,31.3557 C48.374,31.3557 48.546,31.5397 48.648,31.6367 C48.808,31.7887 50.269,33.2617 51.821,34.7787 C52.814,35.7537 53.887,36.8477 54.195,37.1517 L54.093,32.5357 C54.081,31.9407 54.024,31.7347 53.716,31.6797 C53.533,31.6477 53.305,31.6367 53.225,31.6367 C53.156,31.6367 53.146,31.5827 53.146,31.5497 C53.146,31.4957 53.225,31.4857 53.339,31.4857 C53.796,31.4857 54.275,31.5067 54.39,31.5067 C54.504,31.5067 54.834,31.4857 55.245,31.4857 C55.348,31.4857 55.428,31.4957 55.428,31.5497 C55.428,31.5827 55.382,31.6367 55.313,31.6367 C55.269,31.6367 55.188,31.6367 55.074,31.6587 C54.743,31.7237 54.721,31.9077 54.721,32.4607 L54.697,37.8557 C54.697,38.4627 54.686,38.5167 54.617,38.5167 C54.515,38.5167 54.412,38.4407 53.853,37.9527 C53.75,37.8657 52.301,36.5117 51.239,35.4617 C50.075,34.3017 48.945,33.1747 48.637,32.8507 L48.751,37.1947 Z" id="Fill-48" fill="#656464"></path>
                    <path d="M9.5908,49.7426 L9.6358,49.7426 C9.9448,48.7456 10.9938,45.6036 11.3938,44.2176 C11.5078,43.8166 11.5198,43.6646 11.5198,43.5236 C11.5198,43.3286 11.3938,43.1986 10.8688,43.1986 C10.8118,43.1986 10.7658,43.1666 10.7658,43.1226 C10.7658,43.0686 10.8228,43.0476 10.9598,43.0476 C11.5418,43.0476 12.0218,43.0796 12.1238,43.0796 C12.2038,43.0796 12.6948,43.0476 13.0488,43.0476 C13.1518,43.0476 13.2088,43.0686 13.2088,43.1126 C13.2088,43.1666 13.1738,43.1986 13.1058,43.1986 C13.0608,43.1986 12.8438,43.2096 12.7178,43.2526 C12.3748,43.3716 12.1928,43.8266 11.9758,44.4236 C11.4738,45.7986 10.3208,49.2436 9.8758,50.4576 C9.5788,51.2596 9.5218,51.3886 9.3968,51.3886 C9.2818,51.3886 9.2138,51.2486 9.0538,50.8256 L6.8178,44.7916 L6.7938,44.7916 C6.3828,45.8316 4.8198,49.8076 4.4078,50.8146 C4.2268,51.2696 4.1688,51.3886 4.0318,51.3886 C3.9178,51.3886 3.8618,51.2696 3.6328,50.5336 L1.6008,44.1086 C1.4178,43.5346 1.2698,43.3716 0.9738,43.2636 C0.8248,43.2096 0.5388,43.1986 0.4598,43.1986 C0.4028,43.1986 0.3568,43.1876 0.3568,43.1226 C0.3568,43.0686 0.4258,43.0476 0.5388,43.0476 C1.1328,43.0476 1.7608,43.0796 1.8868,43.0796 C1.9888,43.0796 2.4908,43.0476 3.0618,43.0476 C3.2218,43.0476 3.2678,43.0796 3.2678,43.1226 C3.2678,43.1876 3.2098,43.1986 3.1538,43.1986 C3.0618,43.1986 2.8448,43.1986 2.7078,43.2636 C2.6398,43.2966 2.5598,43.3836 2.5598,43.5236 C2.5598,43.6646 2.6618,44.0436 2.7768,44.5206 C2.9468,45.2136 4.1348,49.1896 4.3058,49.7636 L4.3288,49.7636 L6.7478,43.5776 C6.9198,43.1336 6.9648,43.0796 7.0338,43.0796 C7.1128,43.0796 7.1828,43.2206 7.3198,43.5886 L9.5908,49.7426 Z" id="Fill-49" fill="#656464"></path>
                    <path d="M20.6445,48.5614 C20.6445,49.4504 20.6555,50.1754 20.7015,50.5554 C20.7355,50.8254 20.7585,50.9994 21.0665,51.0424 C21.2035,51.0644 21.4315,51.0854 21.5115,51.0854 C21.5805,51.0854 21.6035,51.1294 21.6035,51.1614 C21.6035,51.2054 21.5455,51.2374 21.4315,51.2374 C20.8835,51.2374 20.2455,51.2054 20.1875,51.2054 C20.1425,51.2054 19.4915,51.2374 19.1945,51.2374 C19.0815,51.2374 19.0355,51.2154 19.0355,51.1614 C19.0355,51.1294 19.0575,51.0854 19.1155,51.0854 C19.2065,51.0854 19.3205,51.0644 19.4125,51.0424 C19.6175,50.9994 19.6515,50.8144 19.6855,50.5444 C19.7315,50.1654 19.7315,49.4714 19.7315,48.5834 L19.7315,47.6624 C19.7315,47.6194 19.7075,47.6084 19.6735,47.6084 L15.4855,47.6084 C15.4515,47.6084 15.4285,47.6194 15.4285,47.6624 L15.4285,48.5834 C15.4285,49.4714 15.4285,50.1754 15.4735,50.5554 C15.5075,50.8254 15.5415,50.9994 15.8385,51.0424 C15.9875,51.0644 16.2045,51.0854 16.2955,51.0854 C16.3525,51.0854 16.3755,51.1294 16.3755,51.1614 C16.3755,51.2054 16.3305,51.2374 16.2155,51.2374 C15.6565,51.2374 15.0175,51.2054 14.9715,51.2054 C14.9155,51.2054 14.2755,51.2374 13.9675,51.2374 C13.8645,51.2374 13.8075,51.2154 13.8075,51.1614 C13.8075,51.1294 13.8305,51.0854 13.8875,51.0854 C13.9785,51.0854 14.1045,51.0644 14.1955,51.0424 C14.3895,50.9994 14.4125,50.8254 14.4575,50.5554 C14.5155,50.1754 14.5155,49.4504 14.5155,48.5614 L14.5155,46.9364 C14.5155,45.5064 14.5155,45.2464 14.4925,44.9544 C14.4695,44.6394 14.4125,44.4884 14.0815,44.4444 C14.0015,44.4344 13.8305,44.4234 13.7395,44.4234 C13.7055,44.4234 13.6595,44.3794 13.6595,44.3474 C13.6595,44.2924 13.7055,44.2714 13.8195,44.2714 C14.2755,44.2714 14.9155,44.2924 14.9715,44.2924 C15.0175,44.2924 15.6565,44.2714 15.9645,44.2714 C16.0795,44.2714 16.1245,44.2924 16.1245,44.3474 C16.1245,44.3794 16.0795,44.4234 16.0445,44.4234 C15.9765,44.4234 15.9075,44.4234 15.7935,44.4444 C15.5195,44.4994 15.4625,44.6284 15.4395,44.9544 C15.4285,45.2464 15.4285,45.5284 15.4285,46.9584 L15.4285,47.1534 C15.4285,47.2074 15.4515,47.2074 15.4855,47.2074 L19.6735,47.2074 C19.7075,47.2074 19.7315,47.2074 19.7315,47.1534 L19.7315,46.9584 C19.7315,45.5284 19.7195,45.2464 19.7075,44.9544 C19.6855,44.6394 19.6395,44.4884 19.3085,44.4444 C19.2285,44.4344 19.0575,44.4234 18.9665,44.4234 C18.9205,44.4234 18.8865,44.3794 18.8865,44.3474 C18.8865,44.2924 18.9325,44.2714 19.0465,44.2714 C19.4915,44.2714 20.1425,44.2924 20.1875,44.2924 C20.2455,44.2924 20.8835,44.2714 21.1805,44.2714 C21.2945,44.2714 21.3515,44.2924 21.3515,44.3474 C21.3515,44.3794 21.3065,44.4234 21.2605,44.4234 C21.1925,44.4234 21.1345,44.4234 21.0095,44.4444 C20.7475,44.4994 20.6895,44.6284 20.6665,44.9544 C20.6445,45.2464 20.6445,45.5064 20.6445,46.9364 L20.6445,48.5614 Z" id="Fill-50" fill="#656464"></path>
                    <path d="M24.5781,48.5614 C24.5781,49.4504 24.5781,50.1754 24.6231,50.5554 C24.6571,50.8254 24.6911,50.9994 24.9881,51.0424 C25.1371,51.0644 25.3531,51.0854 25.4451,51.0854 C25.5021,51.0854 25.5251,51.1294 25.5251,51.1614 C25.5251,51.2054 25.4791,51.2374 25.3651,51.2374 C24.8061,51.2374 24.1551,51.2054 24.1091,51.2054 C24.0531,51.2054 23.4251,51.2374 23.1171,51.2374 C23.0141,51.2374 22.9571,51.2154 22.9571,51.1614 C22.9571,51.1294 22.9791,51.0854 23.0371,51.0854 C23.1281,51.0854 23.2541,51.0644 23.3451,51.0424 C23.5391,50.9994 23.5731,50.8254 23.6071,50.5554 C23.6531,50.1754 23.6651,49.4504 23.6651,48.5614 L23.6651,46.9364 C23.6651,45.5064 23.6651,45.2464 23.6411,44.9544 C23.6191,44.6394 23.5391,44.4994 23.3221,44.4554 C23.2081,44.4344 23.0821,44.4234 23.0141,44.4234 C22.9691,44.4234 22.9341,44.3794 22.9341,44.3474 C22.9341,44.2924 22.9791,44.2714 23.0941,44.2714 C23.4251,44.2714 24.0531,44.2924 24.1091,44.2924 C24.1551,44.2924 24.8061,44.2714 25.1141,44.2714 C25.2281,44.2714 25.2731,44.2924 25.2731,44.3474 C25.2731,44.3794 25.2281,44.4234 25.1941,44.4234 C25.1261,44.4234 25.0571,44.4234 24.9431,44.4444 C24.6691,44.4994 24.6121,44.6284 24.5891,44.9544 C24.5781,45.2464 24.5781,45.5064 24.5781,46.9364 L24.5781,48.5614 Z" id="Fill-51" fill="#656464"></path>
                    <path d="M30.0088,48.5614 C30.0088,49.4504 30.0088,50.1754 30.0538,50.5554 C30.0878,50.8254 30.1338,50.9994 30.4428,51.0424 C30.5788,51.0644 30.8078,51.0854 30.8988,51.0854 C30.9668,51.0854 30.9788,51.1294 30.9788,51.1614 C30.9788,51.2054 30.9328,51.2374 30.8188,51.2374 C30.2708,51.2374 29.6318,51.2054 29.5738,51.2054 C29.5298,51.2054 28.8328,51.2374 28.5358,51.2374 C28.4218,51.2374 28.3758,51.2154 28.3758,51.1614 C28.3758,51.1294 28.3998,51.0964 28.4558,51.0964 C28.5478,51.0964 28.6608,51.0754 28.7528,51.0534 C28.9578,51.0104 29.0158,50.8254 29.0498,50.5554 C29.0958,50.1754 29.0958,49.4504 29.0958,48.5614 L29.0958,44.6934 L27.6458,44.7154 C27.0178,44.7264 26.7788,44.7914 26.6298,45.0084 C26.5158,45.1704 26.5038,45.2354 26.4698,45.3004 C26.4468,45.3764 26.4128,45.3874 26.3668,45.3874 C26.3448,45.3874 26.2988,45.3654 26.2988,45.3114 C26.2988,45.2134 26.4928,44.3904 26.5158,44.3144 C26.5278,44.2604 26.5838,44.1414 26.6178,44.1414 C26.6878,44.1414 26.7898,44.2174 27.0638,44.2494 C27.3488,44.2824 27.7378,44.2924 27.8518,44.2924 L31.6408,44.2924 C31.9718,44.2924 32.1998,44.2714 32.3598,44.2494 C32.5078,44.2284 32.5998,44.2064 32.6448,44.2064 C32.6908,44.2064 32.6908,44.2604 32.6908,44.3144 C32.6908,44.5964 32.6558,45.2574 32.6558,45.3654 C32.6558,45.4414 32.6108,45.4844 32.5658,45.4844 C32.5198,45.4844 32.4958,45.4524 32.4858,45.3224 L32.4738,45.2254 C32.4398,44.9434 32.2228,44.7374 31.2638,44.7154 L30.0088,44.6934 L30.0088,48.5614 Z" id="Fill-52" fill="#656464"></path>
                    <path d="M34.4912,46.9364 C34.4912,45.5064 34.4912,45.2464 34.4682,44.9544 C34.4452,44.6394 34.3872,44.4884 34.0562,44.4444 C33.9772,44.4344 33.8052,44.4234 33.7152,44.4234 C33.6802,44.4234 33.6352,44.3794 33.6352,44.3474 C33.6352,44.2924 33.6802,44.2714 33.7952,44.2714 C34.2512,44.2714 34.9012,44.2924 34.9592,44.2924 C35.0272,44.2924 37.1272,44.3044 37.3552,44.2924 C37.5502,44.2824 37.7322,44.2494 37.8122,44.2384 C37.8572,44.2284 37.9032,44.1954 37.9492,44.1954 C37.9832,44.1954 37.9952,44.2384 37.9952,44.2824 C37.9952,44.3474 37.9372,44.4554 37.9152,44.7154 C37.9032,44.8024 37.8812,45.2134 37.8572,45.3224 C37.8462,45.3654 37.8122,45.4194 37.7662,45.4194 C37.7092,45.4194 37.6862,45.3764 37.6862,45.3004 C37.6862,45.2354 37.6752,45.0834 37.6302,44.9754 C37.5602,44.8244 37.4582,44.7584 36.9102,44.6934 C36.7392,44.6724 35.5752,44.6614 35.4612,44.6614 C35.4152,44.6614 35.4042,44.6934 35.4042,44.7584 L35.4042,47.2614 C35.4042,47.3264 35.4042,47.3584 35.4612,47.3584 C35.5872,47.3584 36.9102,47.3584 37.1382,47.3374 C37.3792,47.3154 37.5262,47.3054 37.6302,47.2074 C37.6982,47.1424 37.7442,47.0884 37.7782,47.0884 C37.8122,47.0884 37.8352,47.1094 37.8352,47.1644 C37.8352,47.2184 37.7782,47.3704 37.7552,47.6734 C37.7322,47.8574 37.7092,48.2044 37.7092,48.2694 C37.7092,48.3454 37.6862,48.4424 37.6182,48.4424 C37.5722,48.4424 37.5502,48.4104 37.5502,48.3554 C37.5502,48.2694 37.5502,48.1714 37.5042,48.0524 C37.4702,47.9224 37.3792,47.8134 36.9902,47.7704 C36.7172,47.7384 35.6432,47.7274 35.4722,47.7274 C35.4152,47.7274 35.4042,47.7594 35.4042,47.7924 L35.4042,48.5614 C35.4042,48.8754 35.3922,49.9484 35.4042,50.1324 C35.4272,50.7494 35.6092,50.8694 36.6022,50.8694 C36.8652,50.8694 37.3442,50.8694 37.6062,50.7714 C37.8692,50.6634 38.0062,50.5004 38.0632,50.1324 C38.0862,50.0244 38.1092,49.9914 38.1662,49.9914 C38.2222,49.9914 38.2342,50.0674 38.2342,50.1324 C38.2342,50.1974 38.1542,50.8254 38.0972,51.0204 C38.0292,51.2594 37.9262,51.2594 37.5382,51.2594 C36.7852,51.2594 36.2032,51.2374 35.7922,51.2264 C35.3692,51.2054 35.1072,51.2054 34.9592,51.2054 C34.9352,51.2054 34.7422,51.2054 34.5252,51.2154 C34.3312,51.2264 34.1022,51.2374 33.9432,51.2374 C33.8402,51.2374 33.7832,51.2154 33.7832,51.1614 C33.7832,51.1294 33.8052,51.0854 33.8632,51.0854 C33.9542,51.0854 34.0802,51.0534 34.1712,51.0424 C34.3652,51.0104 34.3872,50.8254 34.4332,50.5554 C34.4912,50.1754 34.4912,49.4504 34.4912,48.5614 L34.4912,46.9364 Z" id="Fill-53" fill="#656464"></path>
                    <path d="M3.1475,11.1303 C3.1475,11.1303 2.7455,11.7053 2.4575,11.9363 C2.1695,12.1663 1.8245,12.9133 2.6875,12.7413 C3.5495,12.5683 7.8065,9.4043 9.2455,8.2543 C10.6825,7.1043 12.2275,5.6443 13.2715,4.4583 C14.5375,3.0203 14.9975,0.4313 12.5815,0.3163 C10.2255,0.2043 8.9575,2.4443 8.4975,3.5373 C8.0375,4.6303 3.1475,11.1303 3.1475,11.1303" id="Fill-54" fill="#12A095"></path>
                </g>
            </g>
        </g>
    </g>
</svg>